<?xml version="1.0" encoding="UTF-8"?>
<svg width="815.14px" height="608.803366px" viewBox="0 0 815.14 608.803366" version="1.1" xmlns="http://www.w3.org/2000/svg" xmlns:xlink="http://www.w3.org/1999/xlink">
    <title>MTS_LOGO</title>
    <g id="Page-1" stroke="none" stroke-width="1" fill="none" fill-rule="evenodd">
        <g id="MTS_LOGO" transform="translate(0.000000, 0.000000)" fill="#FFFFF6" fill-rule="nonzero">
            <polygon id="Path" points="10.37 482.033366 10.37 389.803366 38.96 389.803366 61.75 433.283366 84.54 389.803366 113.13 389.803366 113.13 482.033366 91.79 482.033366 91.79 419.193366 61.49 475.453366 31.19 418.933366 31.19 482.043366 10.37 482.043366"></polygon>
            <path d="M113.63,482.533366 L91.29,482.533366 L91.29,421.173366 L61.49,476.503366 L31.69,420.913366 L31.69,482.533366 L9.87,482.533366 L9.87,389.303366 L39.26,389.303366 L61.75,432.203366 L84.24,389.303366 L113.63,389.303366 L113.63,482.533366 Z M92.29,481.533366 L112.63,481.533366 L112.63,390.303366 L84.84,390.303366 L61.75,434.353366 L38.65,390.303366 L10.86,390.303366 L10.86,481.533366 L30.68,481.533366 L30.68,416.933366 L61.48,474.393366 L92.28,417.213366 L92.28,481.543366 L92.29,481.533366 Z" id="Shape"></path>
            <path d="M174.4,483.483366 C167.46,483.483366 161,482.273366 155.03,479.863366 C149.06,477.443366 143.83,474.063366 139.35,469.723366 C134.87,465.373366 131.38,460.323366 128.88,454.573366 C126.38,448.823366 125.13,442.603366 125.13,435.933366 C125.13,429.263366 126.38,423.043366 128.88,417.293366 C131.38,411.543366 134.87,406.493366 139.35,402.143366 C143.83,397.793366 149.05,394.413366 155.03,391.993366 C161,389.573366 167.46,388.373366 174.4,388.373366 C181.34,388.373366 187.79,389.583366 193.77,391.993366 C199.74,394.413366 204.97,397.793366 209.45,402.143366 C213.93,406.493366 217.42,411.543366 219.92,417.293366 C222.42,423.043366 223.67,429.263366 223.67,435.933366 C223.67,442.603366 222.42,448.823366 219.92,454.573366 C217.42,460.323366 213.93,465.373366 209.45,469.723366 C204.97,474.073366 199.74,477.453366 193.77,479.863366 C187.8,482.283366 181.34,483.483366 174.4,483.483366 Z M174.4,462.663366 C178.09,462.663366 181.51,461.983366 184.68,460.623366 C187.84,459.263366 190.59,457.393366 192.91,455.023366 C195.24,452.653366 197.06,449.823366 198.38,446.523366 C199.7,443.223366 200.36,439.693366 200.36,435.913366 C200.36,432.133366 199.7,428.493366 198.38,425.243366 C197.06,421.993366 195.24,419.183366 192.91,416.813366 C190.58,414.443366 187.84,412.573366 184.68,411.213366 C181.52,409.853366 178.09,409.173366 174.4,409.173366 C170.71,409.173366 167.29,409.853366 164.12,411.213366 C160.96,412.573366 158.21,414.443366 155.89,416.813366 C153.56,419.183366 151.74,421.993366 150.42,425.243366 C149.1,428.493366 148.44,432.053366 148.44,435.913366 C148.44,439.773366 149.1,443.223366 150.42,446.523366 C151.74,449.813366 153.56,452.653366 155.89,455.023366 C158.22,457.393366 160.96,459.263366 164.12,460.623366 C167.28,461.983366 170.71,462.663366 174.4,462.663366 Z" id="Shape"></path>
            <path d="M174.4,483.983366 C167.43,483.983366 160.85,482.753366 154.85,480.323366 C148.85,477.893366 143.52,474.443366 139.01,470.073366 C134.5,465.703366 130.94,460.553366 128.43,454.763366 C125.91,448.973366 124.63,442.633366 124.63,435.923366 C124.63,429.213366 125.91,422.873366 128.43,417.083366 C130.95,411.293366 134.51,406.143366 139.01,401.773366 C143.51,397.403366 148.84,393.953366 154.85,391.523366 C160.86,389.093366 167.43,387.863366 174.4,387.863366 C181.37,387.863366 187.95,389.093366 193.95,391.523366 C199.96,393.953366 205.29,397.403366 209.79,401.773366 C214.29,406.143366 217.86,411.293366 220.37,417.083366 C222.89,422.873366 224.17,429.213366 224.17,435.923366 C224.17,442.633366 222.89,448.973366 220.37,454.763366 C217.85,460.553366 214.29,465.703366 209.79,470.073366 C205.28,474.443366 199.96,477.893366 193.95,480.323366 C187.94,482.753366 181.36,483.983366 174.4,483.983366 Z M174.4,388.863366 C167.56,388.863366 161.11,390.073366 155.22,392.453366 C149.33,394.833366 144.11,398.213366 139.7,402.493366 C135.29,406.773366 131.8,411.813366 129.34,417.483366 C126.88,423.143366 125.63,429.353366 125.63,435.923366 C125.63,442.493366 126.88,448.703366 129.34,454.363366 C131.81,460.033366 135.29,465.073366 139.7,469.353366 C144.11,473.633366 149.33,477.013366 155.22,479.393366 C161.1,481.773366 167.56,482.983366 174.4,482.983366 C181.24,482.983366 187.69,481.773366 193.58,479.393366 C199.46,477.013366 204.69,473.633366 209.1,469.353366 C213.51,465.073366 217,460.023366 219.46,454.363366 C221.92,448.703366 223.17,442.493366 223.17,435.923366 C223.17,429.353366 221.92,423.143366 219.46,417.483366 C216.99,411.813366 213.51,406.773366 209.1,402.493366 C204.69,398.213366 199.47,394.833366 193.58,392.453366 C187.69,390.073366 181.24,388.863366 174.4,388.863366 Z M174.4,463.173366 C170.66,463.173366 167.13,462.473366 163.93,461.093366 C160.72,459.713366 157.9,457.793366 155.54,455.383366 C153.18,452.973366 151.3,450.063366 149.97,446.723366 C148.64,443.383366 147.96,439.753366 147.96,435.933366 C147.96,432.113366 148.64,428.363366 149.97,425.073366 C151.31,421.773366 153.18,418.883366 155.54,416.483366 C157.9,414.083366 160.72,412.163366 163.93,410.773366 C167.14,409.393366 170.67,408.693366 174.4,408.693366 C178.13,408.693366 181.66,409.393366 184.87,410.773366 C188.08,412.153366 190.9,414.073366 193.26,416.483366 C195.62,418.893366 197.5,421.783366 198.83,425.073366 C200.17,428.363366 200.84,432.023366 200.84,435.933366 C200.84,439.843366 200.16,443.383366 198.83,446.723366 C197.5,450.063366 195.62,452.973366 193.25,455.383366 C190.89,457.793366 188.06,459.713366 184.86,461.093366 C181.65,462.473366 178.13,463.173366 174.39,463.173366 L174.4,463.173366 Z M174.4,409.683366 C170.8,409.683366 167.41,410.353366 164.32,411.683366 C161.23,413.013366 158.51,414.863366 156.24,417.173366 C153.97,419.483366 152.17,422.273366 150.88,425.443366 C149.59,428.613366 148.94,432.143366 148.94,435.923366 C148.94,439.703366 149.59,443.123366 150.88,446.343366 C152.17,449.563366 153.97,452.363366 156.24,454.673366 C158.51,456.983366 161.23,458.833366 164.32,460.163366 C167.4,461.493366 170.79,462.163366 174.4,462.163366 C178.01,462.163366 181.4,461.493366 184.48,460.163366 C187.57,458.833366 190.28,456.983366 192.56,454.673366 C194.83,452.353366 196.64,449.553366 197.92,446.343366 C199.21,443.123366 199.86,439.613366 199.86,435.923366 C199.86,432.233366 199.21,428.613366 197.92,425.443366 C196.63,422.273366 194.83,419.493366 192.56,417.173366 C190.29,414.863366 187.57,413.013366 184.48,411.683366 C181.39,410.353366 178,409.683366 174.4,409.683366 Z" id="Shape"></path>
            <path d="M235.66,482.033366 L235.66,389.803366 L282.83,389.803366 C289.15,389.803366 294.77,391.053366 299.69,393.553366 C304.61,396.053366 308.45,399.523366 311.22,403.963366 C313.99,408.403366 315.37,413.473366 315.37,419.183366 C315.37,424.893366 313.79,430.163366 310.63,434.733366 C307.47,439.303366 303.3,442.773366 298.11,445.143366 L318.27,482.033366 L292.97,482.033366 L275.58,448.433366 L258.32,448.433366 L258.32,482.033366 L235.66,482.033366 L235.66,482.033366 Z M258.32,429.993366 L280.72,429.993366 C284.23,429.993366 287.06,429.023366 289.22,427.093366 C291.37,425.163366 292.45,422.663366 292.45,419.583366 C292.45,416.503366 291.37,414.003366 289.22,412.073366 C287.07,410.143366 284.23,409.173366 280.72,409.173366 L258.32,409.173366 L258.32,429.993366 L258.32,429.993366 Z" id="Shape"></path>
            <path d="M319.11,482.533366 L292.67,482.533366 L275.28,448.933366 L258.82,448.933366 L258.82,482.533366 L235.16,482.533366 L235.16,389.303366 L282.83,389.303366 C289.2,389.303366 294.95,390.583366 299.92,393.113366 C304.9,395.643366 308.84,399.213366 311.65,403.703366 C314.45,408.203366 315.88,413.413366 315.88,419.183366 C315.88,424.953366 314.25,430.383366 311.05,435.013366 C307.95,439.493366 303.84,442.973366 298.82,445.363366 L319.13,482.523366 L319.11,482.533366 Z M293.28,481.533366 L317.43,481.533366 L297.42,444.913366 L297.91,444.693366 C302.99,442.373366 307.13,438.923366 310.22,434.453366 C313.31,429.993366 314.87,424.863366 314.87,419.193366 C314.87,413.523366 313.5,408.573366 310.8,404.243366 C308.09,399.903366 304.28,396.463366 299.47,394.013366 C294.64,391.553366 289.05,390.313366 282.83,390.313366 L236.16,390.313366 L236.16,481.543366 L257.82,481.543366 L257.82,447.943366 L275.88,447.943366 L293.27,481.543366 L293.28,481.533366 Z M280.72,430.493366 L257.82,430.493366 L257.82,408.673366 L280.72,408.673366 C284.34,408.673366 287.31,409.693366 289.55,411.703366 C291.8,413.723366 292.94,416.383366 292.94,419.583366 C292.94,422.783366 291.8,425.443366 289.55,427.463366 C287.31,429.473366 284.34,430.493366 280.72,430.493366 L280.72,430.493366 Z M258.82,429.493366 L280.72,429.493366 C284.09,429.493366 286.84,428.563366 288.88,426.723366 C290.94,424.873366 291.94,422.543366 291.94,419.583366 C291.94,416.623366 290.94,414.293366 288.88,412.443366 C286.83,410.603366 284.08,409.673366 280.72,409.673366 L258.82,409.673366 L258.82,429.493366 L258.82,429.493366 Z" id="Shape"></path>
            <polygon id="Path" points="326.96 482.033366 326.96 389.803366 399.69 389.803366 399.69 409.433366 349.63 409.433366 349.63 426.033366 382.7 426.033366 382.7 445.003366 349.63 445.003366 349.63 462.393366 400.22 462.393366 400.22 482.023366 326.97 482.023366"></polygon>
            <path d="M400.71,482.533366 L326.46,482.533366 L326.46,389.303366 L400.19,389.303366 L400.19,409.933366 L350.13,409.933366 L350.13,425.533366 L383.2,425.533366 L383.2,445.503366 L350.13,445.503366 L350.13,461.893366 L400.72,461.893366 L400.72,482.523366 L400.71,482.533366 Z M327.46,481.533366 L399.71,481.533366 L399.71,462.903366 L349.12,462.903366 L349.12,444.513366 L382.19,444.513366 L382.19,426.543366 L349.12,426.543366 L349.12,408.943366 L399.18,408.943366 L399.18,390.313366 L327.45,390.313366 L327.45,481.543366 L327.46,481.533366 Z" id="Shape"></path>
            <polygon id="Path" points="464.11 482.033366 464.11 409.833366 433.94 409.833366 433.94 389.803366 516.94 389.803366 516.94 409.833366 486.77 409.833366 486.77 482.033366 464.11 482.033366"></polygon>
            <path d="M487.27,482.533366 L463.61,482.533366 L463.61,410.333366 L433.44,410.333366 L433.44,389.303366 L517.44,389.303366 L517.44,410.333366 L487.27,410.333366 L487.27,482.533366 L487.27,482.533366 Z M464.61,481.533366 L486.27,481.533366 L486.27,409.333366 L516.44,409.333366 L516.44,390.303366 L434.44,390.303366 L434.44,409.333366 L464.61,409.333366 L464.61,481.533366 L464.61,481.533366 Z" id="Shape"></path>
            <polygon id="Path" points="526.96 482.033366 526.96 389.803366 549.62 389.803366 549.62 425.243366 587.56 425.243366 587.56 389.803366 610.22 389.803366 610.22 482.033366 587.56 482.033366 587.56 445.933366 549.62 445.933366 549.62 482.033366"></polygon>
            <path d="M610.72,482.533366 L587.06,482.533366 L587.06,446.433366 L550.12,446.433366 L550.12,482.533366 L526.46,482.533366 L526.46,389.303366 L550.12,389.303366 L550.12,424.743366 L587.06,424.743366 L587.06,389.303366 L610.72,389.303366 L610.72,482.533366 Z M588.06,481.533366 L609.72,481.533366 L609.72,390.303366 L588.06,390.303366 L588.06,425.743366 L549.12,425.743366 L549.12,390.303366 L527.46,390.303366 L527.46,481.533366 L549.12,481.533366 L549.12,445.433366 L588.06,445.433366 L588.06,481.533366 Z" id="Shape"></path>
            <path d="M616.94,482.033366 L654.75,389.803366 L680.71,389.803366 L718,482.033366 L693.49,482.033366 L685.06,459.763366 L649.09,459.763366 L640.53,482.033366 L616.95,482.033366 L616.94,482.033366 Z M655.94,441.713366 L678.34,441.713366 L667.27,412.203366 L655.94,441.713366 L655.94,441.713366 Z" id="Shape"></path>
            <path d="M718.73,482.533366 L693.14,482.533366 L684.71,460.263366 L649.43,460.263366 L640.87,482.533366 L616.2,482.533366 L616.48,481.843366 L654.42,389.303366 L681.05,389.303366 L681.18,389.613366 L718.74,482.523366 L718.73,482.533366 Z M693.83,481.533366 L717.25,481.533366 L680.37,390.303366 L655.09,390.303366 L617.69,481.533366 L640.18,481.533366 L648.74,459.263366 L685.4,459.263366 L693.83,481.533366 L693.83,481.533366 Z M679.06,442.213366 L655.21,442.213366 L667.27,410.793366 L679.05,442.213366 L679.06,442.213366 Z M656.67,441.213366 L677.62,441.213366 L667.27,413.613366 L656.67,441.213366 Z" id="Shape"></path>
            <polygon id="Path" points="724.71 482.033366 724.71 389.803366 746.05 389.803366 787.95 443.293366 787.95 389.803366 809.29 389.803366 809.29 482.033366 789.26 482.033366 746.05 426.433366 746.05 482.033366"></polygon>
            <path d="M809.79,482.533366 L789.02,482.533366 L788.87,482.343366 L746.55,427.893366 L746.55,482.533366 L724.21,482.533366 L724.21,389.303366 L746.3,389.303366 L746.45,389.493366 L787.45,441.843366 L787.45,389.303366 L809.79,389.303366 L809.79,482.533366 Z M789.51,481.533366 L808.79,481.533366 L808.79,390.303366 L788.45,390.303366 L788.45,444.743366 L745.81,390.303366 L725.21,390.303366 L725.21,481.533366 L745.55,481.533366 L745.55,424.973366 L789.51,481.533366 Z" id="Shape"></path>
            <path d="M42.32,608.173366 C34.85,608.173366 27.48,606.813366 20.19,604.093366 C12.9,601.373366 6.4,597.593366 0.69,592.763366 L13.34,576.293366 C18.96,580.863366 24.14,584.133366 28.89,586.113366 C33.63,588.093366 38.68,589.073366 44.04,589.073366 C47.55,589.073366 50.54,588.723366 53,588.023366 C55.46,587.323366 57.35,586.293366 58.67,584.923366 C59.99,583.563366 60.65,581.963366 60.65,580.113366 C60.65,577.563366 59.68,575.593366 57.75,574.183366 C55.82,572.783366 52.52,571.683366 47.87,570.893366 L27.58,567.333366 C20.11,566.013366 14.36,563.163366 10.32,558.773366 C6.28,554.383366 4.26,548.803366 4.26,542.043366 C4.26,536.073366 5.78,530.933366 8.81,526.623366 C11.84,522.323366 16.19,519.023366 21.85,516.743366 C27.52,514.463366 34.26,513.313366 42.07,513.313366 C48.92,513.313366 55.82,514.483366 62.76,516.803366 C69.7,519.133366 75.71,522.363366 80.81,526.483366 L68.82,543.213366 C59.33,535.923366 49.89,532.273366 40.49,532.273366 C37.41,532.273366 34.76,532.603366 32.52,533.263366 C30.28,533.923366 28.57,534.843366 27.38,536.033366 C26.19,537.223366 25.6,538.653366 25.6,540.313366 C25.6,542.603366 26.46,544.353366 28.17,545.583366 C29.88,546.813366 32.67,547.783366 36.54,548.483366 L55.64,551.643366 C64.51,553.053366 71.25,555.993366 75.86,560.473366 C80.47,564.953366 82.78,570.753366 82.78,577.863366 C82.78,584.103366 81.15,589.483366 77.91,594.003366 C74.66,598.523366 70,602.023366 63.94,604.473366 C57.88,606.923366 50.68,608.163366 42.33,608.163366 L42.32,608.173366 Z" id="Path"></path>
            <path d="M42.32,608.673366 C34.83,608.673366 27.32,607.293366 20.01,604.553366 C12.7,601.823366 6.09,597.983366 0.36,593.133366 L-5.68434189e-14,592.823366 L13.25,575.573366 L13.65,575.893366 C19.2,580.413366 24.39,583.683366 29.07,585.633366 C33.73,587.573366 38.76,588.563366 44.03,588.563366 C47.48,588.563366 50.45,588.213366 52.85,587.533366 C55.21,586.853366 57.05,585.863366 58.29,584.573366 C59.53,583.293366 60.13,581.843366 60.13,580.113366 C60.13,577.713366 59.25,575.903366 57.44,574.593366 C55.58,573.243366 52.32,572.163366 47.77,571.383366 L27.48,567.823366 C19.94,566.493366 14.03,563.563366 9.94,559.103366 C5.83,554.643366 3.75,548.893366 3.75,542.033366 C3.75,535.983366 5.31,530.703366 8.39,526.333366 C11.46,521.973366 15.93,518.583366 21.66,516.273366 C27.36,513.973366 34.23,512.813366 42.07,512.813366 C48.94,512.813366 55.95,513.993366 62.91,516.333366 C69.87,518.673366 76,521.953366 81.12,526.103366 L81.49,526.403366 L68.93,543.943366 L68.52,543.633366 C59.17,536.443366 49.74,532.803366 40.5,532.803366 C37.49,532.803366 34.86,533.133366 32.67,533.773366 C30.52,534.403366 28.86,535.293366 27.74,536.413366 C26.64,537.513366 26.11,538.793366 26.11,540.343366 C26.11,542.473366 26.88,544.063366 28.47,545.203366 C30.11,546.383366 32.86,547.333366 36.63,548.013366 L55.73,551.173366 C64.66,552.583366 71.56,555.603366 76.22,560.133366 C80.91,564.693366 83.29,570.663366 83.29,577.883366 C83.29,584.193366 81.62,589.723366 78.32,594.313366 C75.03,598.893366 70.26,602.473366 64.14,604.963366 C58.05,607.433366 50.71,608.693366 42.35,608.693366 L42.32,608.673366 Z M1.37,592.683366 C6.92,597.313366 13.31,600.993366 20.36,603.623366 C27.56,606.313366 34.94,607.673366 42.32,607.673366 C50.56,607.673366 57.76,606.443366 63.74,604.023366 C69.68,601.613366 74.31,598.143366 77.49,593.723366 C80.66,589.303366 82.27,583.973366 82.27,577.873366 C82.27,570.933366 79.99,565.203366 75.5,560.843366 C70.99,556.463366 64.27,553.533366 55.55,552.153366 L36.44,548.993366 C32.51,548.283366 29.63,547.273366 27.86,546.003366 C26.02,544.683366 25.08,542.773366 25.08,540.323366 C25.08,538.523366 25.73,536.963366 27.01,535.683366 C28.25,534.443366 30.05,533.473366 32.36,532.793366 C34.64,532.123366 37.37,531.783366 40.47,531.783366 C49.8,531.783366 59.29,535.393366 68.69,542.513366 L80.1,526.583366 C75.15,522.653366 69.25,519.523366 62.57,517.283366 C55.71,514.983366 48.8,513.813366 42.04,513.813366 C34.33,513.813366 27.58,514.953366 22,517.203366 C16.45,519.443366 12.14,522.703366 9.18,526.913366 C6.22,531.113366 4.73,536.203366 4.73,542.043366 C4.73,548.643366 6.72,554.163366 10.66,558.433366 C14.6,562.723366 20.32,565.553366 27.64,566.843366 L47.93,570.403366 C52.63,571.203366 56.03,572.343366 58.02,573.783366 C60.08,575.283366 61.12,577.413366 61.12,580.113366 C61.12,582.083366 60.41,583.823366 59,585.273366 C57.63,586.693366 55.65,587.783366 53.11,588.503366 C50.62,589.213366 47.56,589.573366 44.01,589.573366 C38.61,589.573366 33.45,588.563366 28.67,586.573366 C24.01,584.633366 18.88,581.413366 13.4,577.003366 L1.36,592.683366 L1.37,592.683366 Z" id="Shape"></path>
            <path d="M142.31,608.173366 C133.79,608.173366 126.39,606.483366 120.11,603.103366 C113.83,599.723366 108.98,594.913366 105.55,588.673366 C102.12,582.433366 100.41,575.103366 100.41,566.673366 L100.41,514.633366 L123.07,514.633366 L123.07,566.673366 C123.07,570.803366 123.86,574.423366 125.44,577.543366 C127.02,580.663366 129.28,583.053366 132.23,584.723366 C135.17,586.393366 138.57,587.223366 142.44,587.223366 C146.31,587.223366 149.8,586.393366 152.65,584.723366 C155.5,583.053366 157.72,580.663366 159.3,577.543366 C160.88,574.423366 161.67,570.803366 161.67,566.673366 L161.67,514.633366 L184.33,514.633366 L184.33,566.673366 C184.33,575.023366 182.59,582.303366 179.13,588.543366 C175.66,594.783366 170.78,599.613366 164.51,603.033366 C158.23,606.453366 150.83,608.173366 142.31,608.173366 Z" id="Path"></path>
            <path d="M142.31,608.673366 C133.74,608.673366 126.2,606.943366 119.87,603.543366 C113.53,600.133366 108.57,595.213366 105.11,588.913366 C101.66,582.633366 99.91,575.153366 99.91,566.673366 L99.91,514.133366 L123.57,514.133366 L123.57,566.673366 C123.57,570.703366 124.35,574.283366 125.89,577.313366 C127.42,580.333366 129.64,582.673366 132.48,584.283366 C135.33,585.903366 138.68,586.723366 142.44,586.723366 C146.2,586.723366 149.63,585.903366 152.4,584.293366 C155.16,582.683366 157.33,580.333366 158.86,577.313366 C160.4,574.283366 161.18,570.703366 161.18,566.673366 L161.18,514.133366 L184.84,514.133366 L184.84,566.673366 C184.84,575.063366 183.07,582.503366 179.57,588.783366 C176.07,595.073366 171.08,600.013366 164.75,603.473366 C158.42,606.923366 150.87,608.673366 142.31,608.673366 L142.31,608.673366 Z M100.91,515.133366 L100.91,566.673366 C100.91,574.983366 102.62,582.303366 105.99,588.433366 C109.35,594.553366 114.18,599.343366 120.35,602.663366 C126.53,605.993366 133.91,607.673366 142.31,607.673366 C150.71,607.673366 158.09,605.963366 164.27,602.593366 C170.44,599.233366 175.29,594.423366 178.7,588.293366 C182.11,582.163366 183.84,574.883366 183.84,566.663366 L183.84,515.123366 L162.18,515.123366 L162.18,566.663366 C162.18,570.853366 161.36,574.583366 159.75,577.763366 C158.13,580.953366 155.83,583.443366 152.9,585.153366 C149.98,586.863366 146.46,587.723366 142.44,587.723366 C138.42,587.723366 134.99,586.863366 131.98,585.153366 C128.96,583.443366 126.61,580.963366 125,577.763366 C123.39,574.593366 122.57,570.853366 122.57,566.663366 L122.57,515.123366 L100.91,515.123366 L100.91,515.133366 Z" id="Shape"></path>
            <path d="M206.87,606.853366 L206.87,514.623366 L254.04,514.623366 C260.36,514.623366 265.98,515.873366 270.9,518.373366 C275.82,520.873366 279.66,524.343366 282.43,528.783366 C285.2,533.223366 286.58,538.293366 286.58,544.003366 C286.58,549.713366 285,554.983366 281.84,559.553366 C278.68,564.123366 274.51,567.593366 269.32,569.963366 L289.48,606.853366 L264.18,606.853366 L246.79,573.253366 L229.53,573.253366 L229.53,606.853366 L206.87,606.853366 L206.87,606.853366 Z M229.53,554.813366 L251.93,554.813366 C255.44,554.813366 258.27,553.843366 260.43,551.913366 C262.58,549.983366 263.66,547.483366 263.66,544.403366 C263.66,541.323366 262.58,538.823366 260.43,536.893366 C258.28,534.963366 255.44,533.993366 251.93,533.993366 L229.53,533.993366 L229.53,554.813366 L229.53,554.813366 Z" id="Shape"></path>
            <path d="M290.32,607.353366 L263.88,607.353366 L246.49,573.753366 L230.03,573.753366 L230.03,607.353366 L206.37,607.353366 L206.37,514.123366 L254.04,514.123366 C260.41,514.123366 266.16,515.403366 271.13,517.933366 C276.11,520.463366 280.05,524.033366 282.86,528.523366 C285.66,533.023366 287.09,538.233366 287.09,544.003366 C287.09,549.773366 285.46,555.203366 282.26,559.833366 C279.16,564.313366 275.05,567.793366 270.03,570.183366 L290.34,607.343366 L290.32,607.353366 Z M264.49,606.353366 L288.64,606.353366 L268.63,569.733366 L269.12,569.513366 C274.2,567.193366 278.34,563.743366 281.43,559.273366 C284.52,554.813366 286.08,549.683366 286.08,544.013366 C286.08,538.343366 284.71,533.393366 282.01,529.063366 C279.3,524.723366 275.49,521.283366 270.68,518.833366 C265.85,516.373366 260.26,515.133366 254.04,515.133366 L207.37,515.133366 L207.37,606.363366 L229.03,606.363366 L229.03,572.763366 L247.09,572.763366 L264.48,606.363366 L264.49,606.353366 Z M251.93,555.313366 L229.03,555.313366 L229.03,533.493366 L251.93,533.493366 C255.55,533.493366 258.52,534.513366 260.76,536.523366 C263.01,538.543366 264.15,541.203366 264.15,544.403366 C264.15,547.603366 263.01,550.263366 260.76,552.283366 C258.52,554.293366 255.55,555.313366 251.93,555.313366 L251.93,555.313366 Z M230.03,554.313366 L251.93,554.313366 C255.3,554.313366 258.05,553.383366 260.09,551.543366 C262.15,549.693366 263.15,547.363366 263.15,544.403366 C263.15,541.443366 262.15,539.113366 260.09,537.263366 C258.04,535.423366 255.29,534.493366 251.93,534.493366 L230.03,534.493366 L230.03,554.313366 L230.03,554.313366 Z" id="Shape"></path>
            <polygon id="Path" points="333.48 606.853366 296.19 514.623366 320.7 514.623366 346.92 583.263366 373.67 514.623366 397.25 514.623366 359.44 606.853366 333.49 606.853366"></polygon>
            <path d="M359.77,607.353366 L333.14,607.353366 L333.01,607.043366 L295.45,514.133366 L321.04,514.133366 L346.92,581.883366 L373.32,514.133366 L397.99,514.133366 L397.71,514.823366 L359.77,607.363366 L359.77,607.353366 Z M333.82,606.353366 L359.1,606.353366 L396.5,515.123366 L374,515.123366 L346.91,584.653366 L320.35,515.123366 L296.93,515.123366 L333.81,606.353366 L333.82,606.353366 Z" id="Shape"></path>
            <polygon id="Path" points="412.53 606.853366 412.53 514.623366 435.19 514.623366 435.19 606.853366"></polygon>
            <path d="M435.69,607.353366 L412.03,607.353366 L412.03,514.123366 L435.69,514.123366 L435.69,607.353366 Z M413.03,606.353366 L434.69,606.353366 L434.69,515.123366 L413.03,515.123366 L413.03,606.353366 Z" id="Shape"></path>
            <polygon id="Path" points="487.76 606.853366 450.47 514.623366 474.98 514.623366 501.2 583.263366 527.95 514.623366 551.53 514.623366 513.72 606.853366 487.77 606.853366"></polygon>
            <path d="M514.05,607.353366 L487.42,607.353366 L487.29,607.043366 L449.73,514.133366 L475.32,514.133366 L501.2,581.883366 L527.6,514.133366 L552.27,514.133366 L551.99,514.823366 L514.05,607.363366 L514.05,607.353366 Z M488.1,606.353366 L513.38,606.353366 L550.78,515.123366 L528.28,515.123366 L501.19,584.653366 L474.63,515.123366 L451.21,515.123366 L488.09,606.353366 L488.1,606.353366 Z" id="Shape"></path>
            <polygon id="Path" points="566.81 606.853366 566.81 514.623366 589.47 514.623366 589.47 606.853366"></polygon>
            <path d="M589.97,607.353366 L566.31,607.353366 L566.31,514.123366 L589.97,514.123366 L589.97,607.353366 Z M567.31,606.353366 L588.97,606.353366 L588.97,515.123366 L567.31,515.123366 L567.31,606.353366 Z" id="Shape"></path>
            <polygon id="Path" points="613.32 606.853366 613.32 514.623366 634.66 514.623366 676.56 568.113366 676.56 514.623366 697.9 514.623366 697.9 606.853366 677.87 606.853366 634.66 551.253366 634.66 606.853366"></polygon>
            <path d="M698.4,607.353366 L677.63,607.353366 L677.48,607.163366 L635.16,552.713366 L635.16,607.353366 L612.82,607.353366 L612.82,514.123366 L634.91,514.123366 L635.06,514.313366 L676.06,566.663366 L676.06,514.123366 L698.4,514.123366 L698.4,607.353366 Z M678.12,606.353366 L697.4,606.353366 L697.4,515.123366 L677.06,515.123366 L677.06,569.563366 L634.42,515.123366 L613.82,515.123366 L613.82,606.353366 L634.16,606.353366 L634.16,549.793366 L678.12,606.353366 L678.12,606.353366 Z" id="Shape"></path>
            <path d="M767.86,608.303366 C760.92,608.303366 754.46,607.093366 748.49,604.683366 C742.52,602.263366 737.27,598.883366 732.75,594.543366 C728.23,590.193366 724.71,585.143366 722.21,579.393366 C719.71,573.643366 718.46,567.423366 718.46,560.753366 C718.46,554.083366 719.71,547.863366 722.21,542.113366 C724.71,536.363366 728.18,531.313366 732.62,526.963366 C737.05,522.613366 742.26,519.233366 748.23,516.813366 C754.2,514.403366 760.61,513.193366 767.47,513.193366 C775.29,513.193366 782.66,514.793366 789.6,518.003366 C796.54,521.213366 802.2,525.623366 806.6,531.243366 L790.66,545.603366 C787.67,541.743366 784.22,538.843366 780.32,536.903366 C776.41,534.973366 772.13,534.003366 767.47,534.003366 C763.78,534.003366 760.38,534.683366 757.26,536.043366 C754.14,537.403366 751.42,539.273366 749.09,541.643366 C746.76,544.013366 744.96,546.823366 743.69,550.073366 C742.42,553.323366 741.78,556.883366 741.78,560.743366 C741.78,564.603366 742.44,568.183366 743.76,571.483366 C745.08,574.773366 746.94,577.633366 749.36,580.043366 C751.78,582.463366 754.58,584.343366 757.79,585.713366 C761,587.073366 764.49,587.753366 768.26,587.753366 C772.03,587.753366 775.13,587.143366 778.08,585.913366 C781.02,584.683366 783.55,582.973366 785.66,580.773366 C787.77,578.583366 789.26,576.073366 790.14,573.263366 L765.24,573.263366 L765.24,553.633366 L814.65,553.633366 L814.65,560.223366 C814.65,567.163366 813.48,573.553366 811.16,579.393366 C808.83,585.233366 805.58,590.323366 801.41,594.673366 C797.24,599.023366 792.3,602.383366 786.59,604.753366 C780.88,607.123366 774.64,608.313366 767.88,608.313366 L767.86,608.303366 Z" id="Path"></path>
            <path d="M767.86,608.803366 C760.89,608.803366 754.31,607.573366 748.3,605.143366 C742.3,602.713366 736.95,599.273366 732.4,594.893366 C727.85,590.523366 724.27,585.373366 721.75,579.583366 C719.23,573.793366 717.95,567.453366 717.95,560.743366 C717.95,554.033366 719.23,547.693366 721.75,541.903366 C724.27,536.113366 727.81,530.963366 732.27,526.593366 C736.73,522.223366 742.04,518.773366 748.05,516.343366 C754.06,513.913366 760.59,512.683366 767.47,512.683366 C775.32,512.683366 782.84,514.313366 789.81,517.533366 C796.79,520.763366 802.57,525.263366 806.99,530.923366 L807.28,531.293366 L790.59,546.323366 L790.26,545.893366 C787.33,542.113366 783.91,539.233366 780.09,537.343366 C776.27,535.453366 772.02,534.493366 767.47,534.493366 C763.87,534.493366 760.5,535.163366 757.46,536.493366 C754.41,537.823366 751.72,539.673366 749.45,541.983366 C747.18,544.293366 745.4,547.073366 744.16,550.243366 C742.91,553.423366 742.28,556.943366 742.28,560.733366 C742.28,564.523366 742.93,568.063366 744.22,571.283366 C745.51,574.503366 747.35,577.323366 749.71,579.683366 C752.07,582.043366 754.85,583.913366 757.98,585.243366 C761.11,586.573366 764.56,587.243366 768.26,587.243366 C771.96,587.243366 775.02,586.633366 777.88,585.433366 C780.75,584.233366 783.24,582.543366 785.29,580.413366 C787.17,578.453366 788.56,576.213366 789.44,573.753366 L764.73,573.753366 L764.73,553.123366 L815.14,553.123366 L815.14,560.213366 C815.14,567.183366 813.95,573.693366 811.61,579.563366 C809.27,585.433366 805.96,590.633366 801.76,595.003366 C797.56,599.383366 792.51,602.813366 786.77,605.193366 C781.03,607.583366 774.67,608.793366 767.87,608.793366 L767.86,608.803366 Z M767.46,513.683366 C760.71,513.683366 754.3,514.893366 748.41,517.273366 C742.52,519.653366 737.32,523.033366 732.96,527.313366 C728.59,531.593366 725.13,536.633366 722.66,542.303366 C720.2,547.963366 718.95,554.173366 718.95,560.743366 C718.95,567.313366 720.2,573.523366 722.66,579.183366 C725.13,584.853366 728.63,589.893366 733.09,594.173366 C737.55,598.453366 742.79,601.833366 748.68,604.213366 C754.57,606.593366 761.02,607.803366 767.86,607.803366 C774.7,607.803366 780.76,606.623366 786.38,604.283366 C792,601.953366 796.93,598.593366 801.03,594.323366 C805.14,590.043366 808.38,584.953366 810.68,579.203366 C812.97,573.443366 814.14,567.053366 814.14,560.223366 L814.14,554.133366 L765.73,554.133366 L765.73,572.763366 L790.81,572.763366 L790.61,573.413366 C789.71,576.283366 788.17,578.883366 786.01,581.123366 C783.87,583.353366 781.26,585.123366 778.27,586.373366 C775.28,587.623366 771.91,588.253366 768.26,588.253366 C764.43,588.253366 760.84,587.553366 757.59,586.173366 C754.34,584.793366 751.45,582.853366 749,580.403366 C746.55,577.953366 744.63,575.013366 743.29,571.673366 C741.96,568.333366 741.28,564.663366 741.28,560.753366 C741.28,556.843366 741.93,553.193366 743.23,549.903366 C744.52,546.603366 746.37,543.713366 748.74,541.303366 C751.1,538.903366 753.9,536.983366 757.07,535.593366 C760.24,534.213366 763.74,533.513366 767.48,533.513366 C772.19,533.513366 776.58,534.503366 780.55,536.463366 C784.37,538.353366 787.79,541.183366 790.73,544.883366 L805.93,531.193366 C801.65,525.833366 796.09,521.553366 789.41,518.463366 C782.57,515.303366 775.19,513.703366 767.49,513.703366 L767.46,513.683366 Z" id="Shape"></path>
            <path d="M227.519967,364.013366 C227.46,263.323366 309.04,181.653366 409.73,181.603332 C510.42,181.543366 592.09,263.123366 592.14,363.813366" id="Path"></path>
            <path d="M220.52,364.013366 C220.49,313.443366 240.16,265.893366 275.89,230.123366 C311.63,194.343366 359.16,174.633366 409.72,174.603366 L409.83,174.603366 C460.36,174.603366 507.86,194.263366 543.62,229.973366 C579.4,265.713366 599.11,313.243366 599.14,363.803366 L585.14,363.803366 C585.11,316.983366 566.85,272.973366 533.72,239.873366 C500.61,206.803366 456.62,188.593366 409.83,188.593366 L409.73,188.593366 C362.9,188.623366 318.89,206.883366 285.79,240.013366 C252.7,273.143366 234.49,317.173366 234.51,364.003366 L220.51,364.003366 L220.52,364.013366 Z" id="Path"></path>
            <line x1="517.19" y1="102.443366" x2="482.24" y2="196.433366" id="Path"></line>
            <path d="M482.24,202.433366 C481.55,202.433366 480.84,202.313366 480.15,202.053366 C477.04,200.903366 475.46,197.443366 476.62,194.343366 L511.57,100.353366 C512.72,97.2433655 516.18,95.6633655 519.28,96.8233655 C522.39,97.9733655 523.97,101.433366 522.81,104.533366 L487.86,198.523366 C486.96,200.943366 484.67,202.433366 482.24,202.433366 L482.24,202.433366 Z" id="Path"></path>
            <line x1="498.22" y1="17.1033655" x2="457.9" y2="189.463366" id="Path"></line>
            <path d="M457.91,195.463366 C457.46,195.463366 457,195.413366 456.54,195.303366 C453.31,194.553366 451.31,191.323366 452.06,188.093366 L492.38,15.7333655 C493.14,12.5033655 496.36,10.5033655 499.59,11.2533655 C502.82,12.0033655 504.82,15.2333655 504.07,18.4633655 L463.75,190.823366 C463.1,193.593366 460.64,195.453366 457.91,195.453366 L457.91,195.463366 Z" id="Path"></path>
            <line x1="445.19" y1="83.5233655" x2="435.76" y2="183.353366" id="Path"></line>
            <path d="M435.77,189.353366 C435.58,189.353366 435.39,189.353366 435.2,189.323366 C431.9,189.013366 429.48,186.083366 429.79,182.783366 L439.22,82.9433655 C439.53,79.6433655 442.46,77.2233655 445.76,77.5333655 C449.06,77.8433655 451.48,80.7733655 451.17,84.0733655 L441.74,183.913366 C441.45,187.023366 438.83,189.353366 435.77,189.353366 L435.77,189.353366 Z" id="Path"></path>
            <line x1="404.79" y1="6.00336553" x2="410.45" y2="182.923366" id="Path"></line>
            <path d="M410.45,188.923366 C407.22,188.923366 404.56,186.363366 404.46,183.113366 L398.8,6.19336553 C398.69,2.88336553 401.29,0.113365533 404.61,0.00336553265 C407.93,-0.106634467 410.69,2.49336553 410.8,5.81336553 L416.46,182.733366 C416.57,186.043366 413.97,188.813366 410.65,188.923366 C410.58,188.923366 410.52,188.923366 410.45,188.923366 Z" id="Path"></path>
            <line x1="370.75" y1="83.8733655" x2="387.49" y2="182.753366" id="Path"></line>
            <path d="M387.48,188.753366 C384.61,188.753366 382.07,186.683366 381.57,183.753366 L364.84,84.8833655 C364.29,81.6133655 366.49,78.5233655 369.76,77.9633655 C373.02,77.4133655 376.12,79.6133655 376.68,82.8833655 L393.41,181.753366 C393.96,185.023366 391.76,188.113366 388.49,188.673366 C388.15,188.733366 387.81,188.753366 387.48,188.753366 Z" id="Path"></path>
            <line x1="311.66" y1="19.4633655" x2="362.92" y2="188.883366" id="Path"></line>
            <path d="M362.92,194.883366 C360.34,194.883366 357.96,193.213366 357.18,190.623366 L305.92,21.1933655 C304.96,18.0233655 306.75,14.6733655 309.93,13.7133655 C313.1,12.7533655 316.45,14.5433655 317.41,17.7233655 L368.67,187.153366 C369.63,190.323366 367.84,193.673366 364.66,194.633366 C364.08,194.803366 363.5,194.893366 362.92,194.893366 L362.92,194.883366 Z" id="Path"></path>
            <line x1="298.94" y1="103.493366" x2="340.7" y2="194.663366" id="Path"></line>
            <path d="M340.7,200.663366 C338.43,200.663366 336.25,199.363366 335.24,197.163366 L293.49,105.993366 C292.11,102.983366 293.43,99.4233655 296.45,98.0433655 C299.46,96.6633655 303.02,97.9833655 304.4,101.003366 L346.15,192.173366 C347.53,195.183366 346.21,198.743366 343.19,200.123366 C342.38,200.493366 341.53,200.673366 340.7,200.673366 L340.7,200.663366 Z" id="Path"></path>
            <line x1="225.2" y1="56.5633655" x2="318.56" y2="206.943366" id="Path"></line>
            <path d="M318.56,212.943366 C316.55,212.943366 314.59,211.933366 313.46,210.103366 L220.1,59.7133655 C218.35,56.9033655 219.22,53.2033655 222.03,51.4533655 C224.84,49.7033655 228.54,50.5733655 230.29,53.3833655 L323.65,203.773366 C325.4,206.583366 324.53,210.283366 321.72,212.033366 C320.74,212.643366 319.64,212.933366 318.56,212.933366 L318.56,212.943366 Z" id="Path"></path>
            <line x1="234.66" y1="141.023366" x2="298.59" y2="218.283366" id="Path"></line>
            <path d="M298.59,224.283366 C296.86,224.283366 295.15,223.543366 293.96,222.113366 L230.03,144.853366 C227.92,142.303366 228.27,138.513366 230.83,136.403366 C233.38,134.293366 237.16,134.643366 239.28,137.203366 L303.21,214.463366 C305.32,217.013366 304.97,220.803366 302.41,222.913366 C301.29,223.843366 299.94,224.293366 298.59,224.293366 L298.59,224.283366 Z" id="Path"></path>
            <line x1="151.28" y1="114.773366" x2="280.38" y2="235.873366" id="Path"></line>
            <path d="M280.38,241.873366 C278.91,241.873366 277.43,241.333366 276.28,240.253366 L147.18,119.153366 C144.76,116.883366 144.64,113.093366 146.91,110.673366 C149.18,108.253366 152.97,108.133366 155.39,110.403366 L284.49,231.503366 C286.91,233.773366 287.03,237.563366 284.76,239.983366 C283.58,241.243366 281.98,241.883366 280.38,241.883366 L280.38,241.873366 Z" id="Path"></path>
            <line x1="182.28" y1="193.903366" x2="264.02" y2="251.993366" id="Path"></line>
            <path d="M264.02,257.993366 C262.82,257.993366 261.6,257.633366 260.55,256.883366 L178.8,198.803366 C176.1,196.883366 175.46,193.133366 177.38,190.433366 C179.3,187.733366 183.05,187.093366 185.75,189.013366 L267.5,247.093366 C270.2,249.013366 270.84,252.763366 268.92,255.463366 C267.75,257.113366 265.9,257.993366 264.02,257.993366 L264.02,257.993366 Z" id="Path"></path>
            <line x1="94.94" y1="190.143366" x2="250.99" y2="273.693366" id="Path"></line>
            <path d="M250.98,279.693366 C250.02,279.693366 249.05,279.463366 248.15,278.983366 L92.1,195.423366 C89.18,193.863366 88.08,190.223366 89.64,187.303366 C91.2,184.383366 94.84,183.283366 97.76,184.843366 L253.81,268.403366 C256.73,269.963366 257.83,273.603366 256.27,276.523366 C255.19,278.543366 253.12,279.693366 250.98,279.693366 L250.98,279.693366 Z" id="Path"></path>
            <line x1="145.37" y1="258.553366" x2="239.36" y2="293.493366" id="Path"></line>
            <path d="M239.36,299.503366 C238.67,299.503366 237.96,299.383366 237.27,299.123366 L143.28,264.173366 C140.17,263.023366 138.59,259.563366 139.75,256.463366 C140.9,253.353366 144.36,251.773366 147.46,252.933366 L241.45,287.883366 C244.56,289.033366 246.14,292.493366 244.98,295.593366 C244.08,298.013366 241.79,299.503366 239.36,299.503366 L239.36,299.503366 Z" id="Path"></path>
            <line x1="60.03" y1="277.513366" x2="232.39" y2="317.833366" id="Path"></line>
            <path d="M232.39,323.833366 C231.94,323.833366 231.48,323.783366 231.02,323.673366 L58.66,283.353366 C55.43,282.603366 53.43,279.373366 54.18,276.143366 C54.94,272.913366 58.16,270.913366 61.39,271.663366 L233.75,311.983366 C236.98,312.733366 238.98,315.963366 238.23,319.193366 C237.58,321.963366 235.12,323.823366 232.39,323.823366 L232.39,323.833366 Z" id="Path"></path>
            <line x1="126.45" y1="330.543366" x2="226.28" y2="339.973366" id="Path"></line>
            <path d="M226.29,345.973366 C226.1,345.973366 225.91,345.973366 225.72,345.943366 L125.88,336.513366 C122.58,336.203366 120.16,333.273366 120.47,329.973366 C120.78,326.673366 123.7,324.253366 127.01,324.563366 L226.85,333.993366 C230.15,334.303366 232.57,337.233366 232.26,340.533366 C231.97,343.643366 229.35,345.973366 226.29,345.973366 L226.29,345.973366 Z" id="Path"></path>
            <line x1="691.86" y1="327.823366" x2="592.99" y2="344.563366" id="Path"></line>
            <path d="M592.98,350.563366 C590.11,350.563366 587.57,348.493366 587.07,345.563366 C586.52,342.293366 588.72,339.203366 591.99,338.643366 L690.86,321.913366 C694.12,321.363366 697.22,323.563366 697.78,326.833366 C698.34,330.103366 696.13,333.193366 692.86,333.753366 L593.99,350.483366 C593.65,350.543366 593.31,350.563366 592.98,350.563366 Z" id="Path"></path>
            <line x1="756.28" y1="268.733366" x2="586.85" y2="319.993366" id="Path"></line>
            <path d="M586.85,325.993366 C584.27,325.993366 581.89,324.323366 581.11,321.733366 C580.15,318.563366 581.94,315.213366 585.12,314.253366 L754.55,262.993366 C757.72,262.033366 761.07,263.823366 762.03,267.003366 C762.99,270.173366 761.2,273.523366 758.02,274.483366 L588.59,325.743366 C588.01,325.913366 587.43,326.003366 586.85,326.003366 L586.85,325.993366 Z" id="Path"></path>
            <line x1="672.25" y1="256.023366" x2="581.07" y2="297.773366" id="Path"></line>
            <path d="M581.08,303.773366 C578.81,303.773366 576.63,302.473366 575.62,300.273366 C574.24,297.263366 575.56,293.703366 578.58,292.323366 L669.75,250.573366 C672.76,249.193366 676.32,250.513366 677.7,253.533366 C679.08,256.543366 677.76,260.103366 674.74,261.483366 L583.57,303.233366 C582.76,303.603366 581.91,303.783366 581.08,303.783366 L581.08,303.773366 Z" id="Path"></path>
            <line x1="719.18" y1="182.273366" x2="568.79" y2="275.633366" id="Path"></line>
            <path d="M568.8,281.633366 C566.79,281.633366 564.83,280.623366 563.7,278.793366 C561.95,275.973366 562.82,272.283366 565.63,270.533366 L716.02,177.173366 C718.83,175.423366 722.53,176.293366 724.28,179.103366 C726.03,181.923366 725.16,185.613366 722.35,187.363366 L571.96,280.723366 C570.98,281.333366 569.88,281.623366 568.8,281.623366 L568.8,281.633366 Z" id="Path"></path>
            <line x1="634.72" y1="191.733366" x2="557.46" y2="255.663366" id="Path"></line>
            <path d="M557.46,261.663366 C555.73,261.663366 554.02,260.923366 552.83,259.493366 C550.72,256.943366 551.07,253.153366 553.63,251.043366 L630.89,187.113366 C633.44,185.003366 637.22,185.353366 639.34,187.913366 C641.45,190.463366 641.1,194.253366 638.54,196.363366 L561.28,260.293366 C560.16,261.223366 558.81,261.673366 557.46,261.673366 L557.46,261.663366 Z" id="Path"></path>
            <line x1="660.96" y1="108.353366" x2="539.87" y2="237.453366" id="Path"></line>
            <path d="M539.86,243.453366 C538.39,243.453366 536.91,242.913366 535.76,241.833366 C533.34,239.563366 533.22,235.773366 535.49,233.353366 L656.59,104.253366 C658.86,101.833366 662.65,101.713366 665.07,103.983366 C667.49,106.253366 667.61,110.043366 665.34,112.463366 L544.24,241.563366 C543.06,242.823366 541.46,243.463366 539.86,243.463366 L539.86,243.453366 Z" id="Path"></path>
            <line x1="581.83" y1="139.353366" x2="523.75" y2="221.093366" id="Path"></line>
            <path d="M523.74,227.093366 C522.54,227.093366 521.32,226.733366 520.27,225.983366 C517.57,224.063366 516.93,220.313366 518.85,217.613366 L576.93,135.863366 C578.85,133.163366 582.6,132.533366 585.3,134.443366 C588,136.363366 588.64,140.113366 586.72,142.813366 L528.64,224.563366 C527.47,226.213366 525.62,227.093366 523.74,227.093366 L523.74,227.093366 Z" id="Path"></path>
            <line x1="585.6" y1="52.0133655" x2="502.04" y2="208.063366" id="Path"></line>
            <path d="M502.04,214.063366 C501.08,214.063366 500.11,213.833366 499.21,213.353366 C496.29,211.793366 495.19,208.153366 496.75,205.233366 L580.31,49.1833655 C581.87,46.2633655 585.51,45.1633655 588.43,46.7233655 C591.35,48.2833655 592.45,51.9233655 590.89,54.8433655 L507.33,210.893366 C506.25,212.913366 504.18,214.063366 502.04,214.063366 L502.04,214.063366 Z" id="Path"></path>
            <line x1="13.06" y1="369.693366" x2="803.25" y2="369.693366" id="Path"></line>
            <path d="M803.25,375.693366 L13.06,375.693366 C9.75,375.693366 7.06,373.003366 7.06,369.693366 C7.06,366.383366 9.75,363.693366 13.06,363.693366 L803.24,363.693366 C806.55,363.693366 809.24,366.383366 809.24,369.693366 C809.24,373.003366 806.55,375.693366 803.24,375.693366 L803.25,375.693366 Z" id="Path"></path>
        </g>
    </g>
</svg>