<?xml version="1.0" encoding="UTF-8"?>
<svg width="93.717095px" height="70px" viewBox="0 0 93.717095 70" version="1.1" xmlns="http://www.w3.org/2000/svg" xmlns:xlink="http://www.w3.org/1999/xlink">
    <title>MTS_white1 (1)</title>
    <g id="Current-Draft-1" stroke="none" stroke-width="1" fill="none" fill-rule="evenodd">
        <g id="MTS_white1-(1)" fill="#FFFFF6" fill-rule="nonzero">
            <polygon id="Path" points="1.15131566 55.4922743 1.15131566 44.9013185 4.45061483 44.9013185 7.08059133 49.8942141 9.71056782 44.9013185 13.009867 44.9013185 13.009867 55.4922743 10.5472212 55.4922743 10.5472212 48.2762312 7.05058721 54.7366797 3.55395325 48.2463748 3.55395325 55.4934226 1.15131566 55.4934226"></polygon>
            <path d="M19.9753268,55.6085542 C19.1725838,55.6085542 18.4253619,55.4694061 17.7348179,55.19226 C17.0442738,54.9139638 16.4393249,54.5252692 15.9211277,54.0261761 C15.4029305,53.527083 14.9992456,52.945191 14.710073,52.2839502 C14.4209005,51.6227093 14.2763142,50.9074192 14.2763142,50.1403798 C14.2763142,49.3733404 14.4209005,48.6580503 14.710073,47.9968094 C14.9992456,47.3355686 15.4029305,46.7548266 15.9211277,46.2545835 C16.4393249,45.7543404 17.0431171,45.3656458 17.7348179,45.0873497 C18.4253619,44.8090535 19.1725838,44.6710554 19.9753268,44.6710554 C20.7780697,44.6710554 21.5241349,44.8102035 22.2158356,45.0873497 C22.9063797,45.3656458 23.5113286,45.7543404 24.0295258,46.2545835 C24.547723,46.7548266 24.9514079,47.3355686 25.2405805,47.9968094 C25.529753,48.6580503 25.6743393,49.3733404 25.6743393,50.1403798 C25.6743393,50.9074192 25.529753,51.6227093 25.2405805,52.2839502 C24.9514079,52.945191 24.547723,53.525933 24.0295258,54.0261761 C23.5113286,54.5264192 22.9063797,54.9151138 22.2158356,55.19226 C21.5252916,55.4705561 20.7780697,55.6085542 19.9753268,55.6085542 Z M19.917761,53.1907913 C20.343251,53.1907913 20.7376077,53.113219 21.1031371,52.9580745 C21.4675135,52.8029299 21.7846131,52.5896061 22.0521299,52.3192439 C22.3207998,52.0488816 22.5306621,51.726044 22.6828699,51.3495903 C22.8350778,50.9731365 22.9111817,50.5704451 22.9111817,50.1392344 C22.9111817,49.7080238 22.8350778,49.2927839 22.6828699,48.922034 C22.5306621,48.5512841 22.3207998,48.230728 22.0521299,47.9603658 C21.78346,47.6900035 21.4675135,47.4766797 21.1031371,47.3215352 C20.7387608,47.1663906 20.343251,47.0888183 19.917761,47.0888183 C19.4922709,47.0888183 19.0979142,47.1663906 18.7323848,47.3215352 C18.3680085,47.4766797 18.0509088,47.6900035 17.783392,47.9603658 C17.5147221,48.230728 17.3048598,48.5512841 17.152652,48.922034 C17.0004442,49.2927839 16.9243402,49.6988976 16.9243402,50.1392344 C16.9243402,50.5795712 17.0004442,50.9731365 17.152652,51.3495903 C17.3048598,51.7249032 17.5147221,52.0488816 17.783392,52.3192439 C18.0520619,52.5896061 18.3680085,52.8029299 18.7323848,52.9580745 C19.0967611,53.113219 19.4922709,53.1907913 19.917761,53.1907913 Z" id="Shape"></path>
            <path d="M27.0559181,55.4934226 L27.0559181,44.9013185 L32.5123125,44.9013185 C33.2433792,44.9013185 33.8934732,45.0448741 34.4625947,45.3319853 C35.0317162,45.6190964 35.4759086,46.0176067 35.7963286,46.527516 C36.1167487,47.0374254 36.2763803,47.6196868 36.2763803,48.2754486 C36.2763803,48.9312105 36.0936136,49.5364408 35.7280803,50.0612799 C35.362547,50.5861191 34.8801818,50.9846293 34.2798281,51.2568107 L36.6118381,55.4934226 L33.6852581,55.4934226 L31.6736681,51.634649 L29.6771158,51.634649 L29.6771158,55.4934226 L27.0559181,55.4934226 L27.0559181,55.4934226 Z M29.7039441,49.5065812 L32.2730681,49.5065812 C32.6756406,49.5065812 33.0002219,49.3939381 33.2479589,49.1698131 C33.4945489,48.9456881 33.6184174,48.6553707 33.6184174,48.2976998 C33.6184174,47.9400288 33.4945489,47.6497114 33.2479589,47.4255864 C33.0013688,47.2014614 32.6756406,47.0888183 32.2730681,47.0888183 L29.7039441,47.0888183 L29.7039441,49.5065812 L29.7039441,49.5065812 Z" id="Shape"></path>
            <polygon id="Path" points="37.5328906 55.4934226 37.5328906 44.9013185 45.8766918 44.9013185 45.8766918 47.1557152 40.1336602 47.1557152 40.1336602 49.0621332 43.9275486 49.0621332 43.9275486 51.2407325 40.1336602 51.2407325 40.1336602 53.2378775 45.937495 53.2378775 45.937495 55.4922742 37.5340378 55.4922742"></polygon>
            <polygon id="Path" points="53.3254876 55.4934226 53.3254876 47.201653 49.8519682 47.201653 49.8519682 44.9013185 59.4078882 44.9013185 59.4078882 47.201653 55.9343689 47.201653 55.9343689 55.4934226 53.3254876 55.4934226"></polygon>
            <polygon id="Path" points="60.5592039 55.4934226 60.5592039 44.9013185 63.1599383 44.9013185 63.1599383 48.971406 67.5143895 48.971406 67.5143895 44.9013185 70.1151239 44.9013185 70.1151239 55.4934226 67.5143895 55.4934226 67.5143895 51.3475378 63.1599383 51.3475378 63.1599383 55.4934226"></polygon>
            <path d="M70.9210448,55.4934226 L75.2715849,44.9013185 L78.2586259,44.9013185 L82.549333,55.4934226 L79.7291337,55.4934226 L78.7591508,52.9358366 L74.6203271,52.9358366 L73.635386,55.4934226 L70.9221955,55.4934226 L70.9210448,55.4934226 Z M75.4111759,50.7730284 L77.9440704,50.7730284 L76.692323,47.434213 L75.4111759,50.7730284 L75.4111759,50.7730284 Z" id="Shape"></path>
            <polygon id="Path" points="83.355254 55.4934226 83.355254 44.9013185 85.8243619 44.9013185 90.6723292 51.0443485 90.6723292 44.9013185 93.1414371 44.9013185 93.1414371 55.4934226 90.8239005 55.4934226 85.8243619 49.1080709 85.8243619 55.4934226"></polygon>
            <path d="M4.78767234,70 C3.92858245,70 3.08099308,69.84319 2.24260415,69.5295699 C1.40421521,69.2159499 0.656680497,68.7801103 0,68.2232041 L1.45481756,66.3241887 C2.10114758,66.8511165 2.69687524,67.2281523 3.24315061,67.4564493 C3.78827593,67.6847462 4.3690529,67.7977417 4.98548153,67.7977417 C5.38915028,67.7977417 5.73301625,67.7573861 6.01592938,67.6766751 C6.29884252,67.5959641 6.51620262,67.4772035 6.66800967,67.3192405 C6.81981672,67.1624305 6.89572024,66.9779481 6.89572024,66.7646404 C6.89572024,66.4706216 6.78416506,66.2434776 6.56220475,66.0809025 C6.34024445,65.9194805 5.96072682,65.7926488 5.42595198,65.7015607 L3.09249362,65.2910874 C2.23340372,65.1388894 1.57212301,64.8102802 1.10750143,64.3041067 C0.642879856,63.7979332 0.410569067,63.1545509 0.410569067,62.3751128 C0.410569067,61.686763 0.585377185,61.0941134 0.933843368,60.597164 C1.28230955,60.1013676 1.78258278,59.7208727 2.43351301,59.4579853 C3.0855933,59.1950979 3.86072929,59.0625012 4.75892101,59.0625012 C5.54670759,59.0625012 6.34024445,59.1974039 7.13838151,59.4649034 C7.93651858,59.7335558 8.62770068,60.1059796 9.21422791,60.5810217 L7.83531388,62.5100156 C6.74391319,61.6694678 5.65826277,61.2486173 4.57721257,61.2486173 C4.22299612,61.2486173 3.91823197,61.2866668 3.66062,61.3627658 C3.40300804,61.4388648 3.2063489,61.5449422 3.06949255,61.6821509 C2.93263619,61.8193597 2.86478304,61.9842408 2.86478304,62.1756413 C2.86478304,62.4396817 2.96368764,62.6414593 3.16034677,62.7832801 C3.3570059,62.9251009 3.6778708,63.0369434 4.12294147,63.1176544 L6.31954348,63.4820071 C7.33964086,63.6445822 8.11477686,63.9835686 8.64495148,64.5001192 C9.1751261,65.0166698 9.44078844,65.6854185 9.44078844,66.505212 C9.44078844,67.2246933 9.25332973,67.8450153 8.88071243,68.366178 C8.50694507,68.8873407 7.97102018,69.2908959 7.27408781,69.5733845 C6.57715545,69.8558731 5.74911699,69.998847 4.7888224,69.998847 L4.78767234,70 Z" id="Path"></path>
            <path d="M16.3417679,69.8848684 C15.3599119,69.8848684 14.5071261,69.6914193 13.7834106,69.3045212 C13.0596951,68.917623 12.5007747,68.3670371 12.105497,67.6527635 C11.7102193,66.9384899 11.5131566,66.0994474 11.5131566,65.1344913 L11.5131566,59.1776328 L14.1245249,59.1776328 L14.1245249,65.1344913 C14.1245249,65.6072396 14.2155656,66.0216099 14.3976469,66.3787467 C14.5797282,66.7358835 14.8401735,67.0094594 15.1801354,67.2006192 C15.5189449,67.3917789 15.9107654,67.4867865 16.3567493,67.4867865 C16.8027332,67.4867865 17.2049254,67.3917789 17.5333632,67.2006192 C17.8618009,67.0094594 18.1176367,66.7358835 18.299718,66.3787467 C18.4817992,66.0216099 18.5728399,65.6072396 18.5728399,65.1344913 L18.5728399,59.1776328 L21.1842082,59.1776328 L21.1842082,65.1344913 C21.1842082,66.09029 20.9836883,66.9236092 20.5849533,67.6378828 C20.185066,68.3521564 19.6226883,68.9050316 18.9001252,69.2965085 C18.1764097,69.6879853 17.323624,69.8848684 16.3417679,69.8848684 Z" id="Path"></path>
            <path d="M23.7171027,69.7697369 L23.7171027,59.1776328 L29.1734971,59.1776328 C29.9045638,59.1776328 30.5546578,59.3211883 31.1237793,59.6082995 C31.6929008,59.8954106 32.1370932,60.2939209 32.4575132,60.8038303 C32.7779332,61.3137396 32.9375649,61.896001 32.9375649,62.5517629 C32.9375649,63.2075247 32.7547982,63.812755 32.3892649,64.3375941 C32.0237316,64.8624333 31.5413664,65.2609436 30.9410126,65.5331249 L33.2730227,69.7697369 L30.3464426,69.7697369 L28.3348526,65.9109632 L26.3383004,65.9109632 L26.3383004,69.7697369 L23.7171027,69.7697369 L23.7171027,69.7697369 Z M26.3651287,63.7828954 L28.9342526,63.7828954 C29.3368252,63.7828954 29.6614065,63.6702523 29.9091434,63.4461273 C30.1557335,63.2220023 30.2796019,62.9316849 30.2796019,62.574014 C30.2796019,62.216343 30.1557335,61.9260256 29.9091434,61.7019007 C29.6625534,61.4777757 29.3368252,61.3651325 28.9342526,61.3651325 L26.3651287,61.3651325 L26.3651287,63.7828954 L26.3651287,63.7828954 Z" id="Shape"></path>
            <polygon id="Path" points="38.3696508 69.7697369 34.0789436 59.1776328 36.8991429 59.1776328 39.9161004 67.0605562 42.9940413 59.1776328 45.7072318 59.1776328 41.3566918 69.7697369 38.3708014 69.7697369"></polygon>
            <polygon id="Path" points="47.4342053 69.7697369 47.4342053 59.1776328 50.0822313 59.1776328 50.0822313 69.7697369"></polygon>
            <polygon id="Path" points="56.099912 69.7697369 51.8092048 59.1776328 54.6294042 59.1776328 57.6463616 67.0605562 60.7243025 59.1776328 63.437493 59.1776328 59.086953 69.7697369 56.1010626 69.7697369"></polygon>
            <polygon id="Path" points="65.1644665 69.7697369 65.1644665 59.1776328 67.8124926 59.1776328 67.8124926 69.7697369"></polygon>
            <polygon id="Path" points="70.5756501 69.7697369 70.5756501 59.1776328 73.0447581 59.1776328 77.8927254 65.3206627 77.8927254 59.1776328 80.3618333 59.1776328 80.3618333 69.7697369 78.0442966 69.7697369 73.0447581 63.3843852 73.0447581 69.7697369"></polygon>
            <path d="M88.3407297,69.9988501 C87.5432949,69.9988501 86.8010141,69.8597167 86.1150363,69.5825997 C85.4290585,69.3043328 84.8258117,68.915679 84.3064449,68.4166384 C83.7870782,67.9164479 83.3826156,67.335767 83.0953552,66.6745956 C82.8080948,66.0134243 82.6644646,65.2982094 82.6644646,64.5312506 C82.6644646,63.7642918 82.8080948,63.0490769 83.0953552,62.3879056 C83.3826156,61.7267342 83.781333,61.1460533 84.2915074,60.6458628 C84.8005328,60.1456723 85.3991834,59.7570186 86.0851612,59.4787517 C86.771139,59.2016346 87.5076746,59.0625012 88.2959171,59.0625012 C89.1944676,59.0625012 90.0413112,59.2464793 90.838746,59.6155854 C91.6361808,59.9846915 92.2865383,60.4917812 92.7921165,61.1380043 L90.9605444,62.7892078 C90.616981,62.3453606 90.2205616,62.0119003 89.7724354,61.7888269 C89.3231602,61.5669033 88.8313704,61.4553665 88.2959171,61.4553665 C87.8719208,61.4553665 87.4812466,61.5335572 87.1227457,61.6899386 C86.7642447,61.84632 86.4517054,62.0613444 86.1839788,62.333862 C85.9162521,62.6063796 85.7094246,62.9294912 85.5634964,63.3031967 C85.4175681,63.6769022 85.3440294,64.0862535 85.3440294,64.5301007 C85.3440294,64.9739479 85.4198662,65.385599 85.5715396,65.7650538 C85.7232131,66.1433588 85.9369348,66.4722197 86.2150029,66.7493367 C86.4930709,67.0276036 86.8148026,67.2437779 87.1836449,67.4013092 C87.5524872,67.5576906 87.9535027,67.6358813 88.3866914,67.6358813 C88.81988,67.6358813 89.1760829,67.5657396 89.5150501,67.4243064 C89.8528683,67.2828732 90.1435758,67.0862466 90.3860236,66.8332767 C90.6284714,66.5814567 90.7996786,66.292841 90.9007942,65.9697295 L88.0396808,65.9697295 L88.0396808,63.712548 L93.717095,63.712548 L93.717095,64.4703079 C93.717095,65.2683129 93.5826571,66.0030755 93.3160795,66.6745956 C93.0483528,67.3461157 92.6749143,67.9313961 92.195764,68.4315866 C91.7166137,68.9317771 91.1489872,69.3181311 90.4928845,69.5906487 C89.8367818,69.8631663 89.1197799,70 88.3430278,70 L88.3407297,69.9988501 Z" id="Path"></path>
            <path d="M24.0624974,42.3684241 C24.0552263,30.1663612 33.9468779,20.2692266 46.155635,20.2631634 C58.3643921,20.2558963 68.2669563,30.1421243 68.2730188,42.3441872" id="Path"></path>
            <path d="M58.8756492,11.5023852 C59.0087732,11.1448523 59.4065291,10.962933 59.764062,11.0960569 C60.1215949,11.2291808 60.3035143,11.6269368 60.1703903,11.9844697 L56.1407855,22.8068369 C56.0076616,23.1643698 55.6099056,23.3462892 55.2523727,23.2131652 C54.8948398,23.0800413 54.7129205,22.6822853 54.8460444,22.3247525 L58.8756492,11.5023852 Z" id="Path"></path>
            <path d="M56.547554,1.8007712 C56.6339718,1.42917501 57.0052654,1.19799218 57.3768616,1.2844099 C57.7484578,1.37082762 57.9796406,1.74212125 57.8932229,2.11371744 L53.2879602,21.9163468 C53.2015425,22.287943 52.8302489,22.5191259 52.4586527,22.4327081 C52.0870565,22.3462904 51.8558737,21.9749968 51.9422914,21.6034006 L56.547554,1.8007712 Z" id="Path"></path>
            <path d="M50.4304069,9.49400692 C50.4646048,9.11403027 50.8003596,8.83372121 51.1803362,8.86791911 C51.5603129,8.90211701 51.8406219,9.23787182 51.806424,9.61784847 L50.7702399,21.1310051 C50.736042,21.5109817 50.4002872,21.7912908 50.0203106,21.7570929 C49.6403339,21.722895 49.3600249,21.3871402 49.3942228,21.0071636 L50.4304069,9.49400692 Z" id="Path"></path>
            <path d="M46.4897496,0.000404239523 C46.8710431,-0.0125209619 47.1906204,0.286100499 47.2035456,0.66739394 L47.894335,21.0456812 C47.9072602,21.4269746 47.6086388,21.746552 47.2273453,21.7594772 C46.8460519,21.7724024 46.5264745,21.4737809 46.5135493,21.0924875 L45.8227599,0.714200235 C45.8098347,0.332906794 46.1084562,0.0133294409 46.4897496,0.000404239523 Z" id="Path"></path>
            <path d="M42.4817702,8.9902346 C42.8577793,8.92566739 43.214937,9.1781409 43.2795042,9.55414997 L45.2367408,20.952175 C45.301308,21.3281841 45.0488345,21.6853418 44.6728254,21.749909 C44.2968164,21.8144762 43.9396587,21.5620027 43.8750915,21.1859936 L41.9178549,9.78796854 C41.8532877,9.41195947 42.1057612,9.05480182 42.4817702,8.9902346 Z" id="Path"></path>
            <path d="M35.6063435,1.52617519 C35.9715872,1.41595371 36.3570279,1.62269009 36.4672494,1.98793381 L42.3389593,21.4451685 C42.4491807,21.8104122 42.2424444,22.1958529 41.8772006,22.3060744 C41.5119569,22.4162959 41.1265162,22.2095595 41.0162947,21.8443158 L35.1445849,2.38708109 C35.0343634,2.02183737 35.2410998,1.63639667 35.6063435,1.52617519 Z" id="Path"></path>
            <path d="M34.0197258,11.2313503 C34.3661236,11.0714744 34.7765396,11.2226803 34.9364155,11.5690781 L39.7719413,22.0460506 C39.9318172,22.3924484 39.7806113,22.8028644 39.4342135,22.9627403 C39.0878157,23.1226162 38.6773997,22.9714103 38.5175238,22.6250125 L33.681998,12.14804 C33.5221221,11.8016422 33.673328,11.3912262 34.0197258,11.2313503 Z" id="Path"></path>
            <path d="M25.5405981,5.9754032 C25.8648465,5.77436916 26.2906721,5.87425417 26.4917062,6.19850263 L37.1989419,23.4682376 C37.3999759,23.792486 37.3000909,24.2183116 36.9758424,24.4193457 C36.651594,24.6203797 36.2257684,24.5204947 36.0247343,24.1962463 L25.3174986,6.92651131 C25.1164646,6.60226285 25.2163496,6.17643724 25.5405981,5.9754032 Z" id="Path"></path>
            <path d="M26.4992329,15.7023143 C26.792631,15.458451 27.2281674,15.4986069 27.4720307,15.7920049 L34.840451,24.6571355 C35.0843143,24.9505336 35.0441584,25.38607 34.7507604,25.6299333 C34.4573623,25.8737967 34.0218259,25.8336408 33.7779626,25.5402428 L26.4095423,16.6751122 C26.165679,16.3817141 26.2058348,15.9461777 26.4992329,15.7023143 Z" id="Path"></path>
            <path d="M16.8810318,12.7675486 C17.1420356,12.4892884 17.5791954,12.4752993 17.8574557,12.7363031 L32.7094277,26.6672226 C32.987688,26.9282264 33.0016771,27.3653863 32.7406733,27.6436465 C32.4796695,27.9219068 32.0425096,27.9358959 31.7642494,27.6748921 L16.9122773,13.7439726 C16.6340171,13.4829688 16.620028,13.0458089 16.8810318,12.7675486 Z" id="Path"></path>
            <path d="M20.3899738,21.936625 C20.6102838,21.6251523 21.0413788,21.5512503 21.3528516,21.7715603 L30.79364,28.4491911 C31.1051127,28.6695011 31.1790148,29.1005962 30.9587048,29.4120689 C30.7383948,29.7235416 30.3072997,29.7974436 29.995827,29.5771337 L20.5550386,22.8995028 C20.2435658,22.6791928 20.1696638,22.2480978 20.3899738,21.936625 Z" id="Path"></path>
            <path d="M10.2141471,21.5475022 C10.3950221,21.2115915 10.8139597,21.0859102 11.1498704,21.2667852 L29.1103947,30.9378368 C29.4463054,31.1187117 29.5719867,31.5376493 29.3911117,31.87356 C29.2102367,32.2094707 28.7912991,32.3351519 28.4553884,32.154277 L10.4948641,22.4832254 C10.1589534,22.3023504 10.0332721,21.8834128 10.2141471,21.5475022 Z" id="Path"></path>
            <path d="M16.0467066,29.4629096 C16.1798305,29.1053767 16.5775865,28.9234573 16.9351193,29.0565812 L27.7574866,33.0861861 C28.1150195,33.21931 28.2969388,33.617066 28.1638149,33.9745988 C28.030691,34.3321317 27.632935,34.5140511 27.2754021,34.3809272 L16.4530349,30.3513224 C16.095502,30.2181984 15.9135826,29.8204425 16.0467066,29.4629096 Z" id="Path"></path>
            <path d="M6.11992799,31.7349784 C6.20634571,31.3633822 6.57763934,31.1321994 6.94923553,31.2186171 L26.7518649,35.8238798 C27.1234611,35.9102975 27.354644,36.2815911 27.2682262,36.6531873 C27.1818085,37.0247835 26.8105149,37.2559663 26.4389187,37.1695486 L6.63628929,32.564286 C6.2646931,32.4778683 6.03351027,32.1065746 6.11992799,31.7349784 Z" id="Path"></path>
            <path d="M13.8185688,37.9315038 C13.8527667,37.5515271 14.1885215,37.2712181 14.5684981,37.305416 L26.0816548,38.3416001 C26.4616314,38.375798 26.7419405,38.7115528 26.7077426,39.0915294 C26.6735447,39.4715061 26.3377899,39.7518151 25.9578132,39.7176172 L14.4446566,38.6814332 C14.0646799,38.6472353 13.7843709,38.3114804 13.8185688,37.9315038 Z" id="Path"></path>
            <path d="M79.439003,37.0823368 C79.8150121,37.0177696 80.1721698,37.2702431 80.236737,37.6462522 C80.3013042,38.0222612 80.0488307,38.3794189 79.6728216,38.4439861 L68.2747965,40.4012227 C67.8987875,40.4657899 67.5416298,40.2133164 67.4770626,39.8373073 C67.4124954,39.4612983 67.6649689,39.1041406 68.040978,39.0395734 L79.439003,37.0823368 Z" id="Path"></path>
            <path d="M86.7247589,30.3090668 C87.0900026,30.1988453 87.4754433,30.4055817 87.5856648,30.7708254 C87.6958863,31.1360691 87.4891499,31.5215098 87.1239062,31.6317313 L67.6666715,37.5034412 C67.3014278,37.6136626 66.9159871,37.4069263 66.8057656,37.0416825 C66.6955441,36.6764388 66.9022805,36.2909981 67.2675242,36.1807766 L86.7247589,30.3090668 Z" id="Path"></path>
            <path d="M76.9638,28.8464799 C77.3101978,28.686604 77.7206138,28.8378099 77.8804897,29.1842077 C78.0403656,29.5306055 77.8891597,29.9410215 77.5427619,30.1008974 L67.0657894,34.9364232 C66.7193916,35.0962991 66.3089756,34.9450932 66.1490997,34.5986954 C65.9892238,34.2522976 66.1404297,33.8418816 66.4868275,33.6820057 L76.9638,28.8464799 Z" id="Path"></path>
            <path d="M82.3004603,20.366849 C82.6247087,20.1658149 83.0505343,20.2657 83.2515684,20.5899484 C83.4526024,20.9141969 83.3527174,21.3400225 83.0284689,21.5410565 L65.758734,32.2482922 C65.4344855,32.4493262 65.0086599,32.3494412 64.8076259,32.0251928 C64.6065918,31.7009443 64.7064769,31.2751187 65.0307253,31.0740847 L82.3004603,20.366849 Z" id="Path"></path>
            <path d="M72.5518594,21.5740242 C72.8452575,21.3301609 73.2807939,21.3703167 73.5246572,21.6637148 C73.7685206,21.9571129 73.7283647,22.3926493 73.4349667,22.6365126 L64.569836,30.0049329 C64.276438,30.2487962 63.8409016,30.2086403 63.5970382,29.9152423 C63.3531749,29.6218442 63.3933307,29.1863078 63.6867288,28.9424445 L72.5518594,21.5740242 Z" id="Path"></path>
            <path d="M75.482999,11.9616277 C75.7440028,11.6833674 76.1811627,11.6693783 76.4594229,11.9303821 C76.7376832,12.1913859 76.7516723,12.6285458 76.4906685,12.906806 L62.559749,27.7587781 C62.2987452,28.0370383 61.8615853,28.0510275 61.5833251,27.7900237 C61.3050648,27.5290199 61.2910757,27.09186 61.5520795,26.8135997 L75.482999,11.9616277 Z" id="Path"></path>
            <path d="M66.3274688,15.6043889 C66.5477787,15.2929162 66.9788738,15.2190142 67.2903465,15.4393241 C67.6018193,15.6596341 67.6757213,16.0907292 67.4554113,16.4022019 L60.7777804,25.8429903 C60.5574705,26.1544631 60.1263754,26.2283651 59.8149027,26.0080551 C59.5034299,25.7877451 59.4295279,25.3566501 59.6498379,25.0451773 L66.3274688,15.6043889 Z" id="Path"></path>
            <path d="M66.7437462,5.65934601 C66.9246212,5.32343532 67.3435587,5.19775405 67.6794694,5.37862904 C68.0153801,5.55950402 68.1410614,5.97844158 67.9601864,6.31435227 L58.2891348,24.2748766 C58.1082598,24.6107873 57.6893223,24.7364686 57.3534116,24.5555936 C57.0175009,24.3747186 56.8918196,23.955781 57.0726946,23.6198703 L66.7437462,5.65934601 Z" id="Path"></path>
            <path d="M92.3355162,41.850332 C92.7170286,41.850332 93.0263056,42.159609 93.0263056,42.5411214 C93.0263056,42.9226339 92.7170286,43.2319108 92.3355162,43.2319108 L1.3815788,43.2319108 C1.00006635,43.2319108 0.690789398,42.9226339 0.690789398,42.5411214 C0.690789398,42.159609 1.00006635,41.850332 1.3815788,41.850332 L92.3355162,41.850332 Z" id="Path"></path>
        </g>
    </g>
</svg>